<svg height="512pt" viewBox="0 0 512 512" width="512pt" xmlns="http://www.w3.org/2000/svg"><path d="m512 256c0 141.386719-114.613281 256-256 256s-256-114.613281-256-256 114.613281-256 256-256 256 114.613281 256 256zm0 0" fill="#ffce00"/><path d="m511.683594 268.828125-124.9375-124.515625-295.601563 61.09375 22.050781 22.050781-8.320312 3.105469 148.273438 148.273438-102.882813 110.617187c30.019531 12.359375 66.257813 22.546875 100.734375 22.546875 138.570312 0 256.242188-105.683594 260.683594-243.171875zm0 0" fill="#fdba12"/><g fill="#707789"><path d="m235.46875 375.425781-123.382812 92.679688c12.035156 8.152343 24.800781 15.308593 38.179687 21.347656l125.203125-94.046875v-167.074219h-40zm0 0"/><path d="m235.46875 375.425781-123.382812 92.679688c12.035156 8.152343 24.800781 15.308593 38.179687 21.347656l125.203125-94.046875v-167.074219h-40zm0 0"/><path d="m235.46875 375.425781-123.382812 92.679688c12.035156 8.152343 24.800781 15.308593 38.179687 21.347656l125.203125-94.046875v-167.074219h-40zm0 0"/></g><path d="m275.46875 228.332031h-20.476562v182.457031l20.476562-15.382812zm0 0" fill="#636978"/><path d="m293.050781 385.417969c0 20.753906-16.828125 37.582031-37.582031 37.582031-20.757812 0-37.585938-16.828125-37.585938-37.582031 0-20.757813 16.828126-37.582031 37.585938-37.582031 20.753906 0 37.582031 16.824218 37.582031 37.582031zm0 0" fill="#555a66"/><path d="m255.46875 347.832031c-.160156 0-.320312.011719-.476562.011719v75.144531c.15625 0 .316406.011719.476562.011719 20.753906 0 37.582031-16.828125 37.582031-37.582031 0-20.757813-16.828125-37.585938-37.582031-37.585938zm0 0" fill="#414952"/><path d="m377.496094 197.148438 37.796875 9.601562-16.496094 64.933594-37.796875-9.601563zm0 0" fill="#555a66"/><path d="m137.378906 102.621094 259.746094 65.980468-32.496094 127.933594-259.746094-65.980468zm0 0" fill="#414952"/><path d="m397.125 168.617188-142.132812-36.109376v136.191407l109.628906 27.851562zm0 0" fill="#333940"/><path d="m270.894531 251.074219-179.75-45.667969 19.976563-78.625c6.917968-27.234375 34.605468-43.703125 61.839844-36.785156l213.789062 54.316406zm0 0" fill="#555a66"/><path d="m386.746094 144.3125-131.753906-33.472656v136.191406l15.902343 4.042969zm0 0" fill="#414952"/><path d="m411.941406 200.984375 18.902344 4.800781-18.839844 74.167969-18.902344-4.800781zm0 0" fill="#7e8596"/></svg>